<?xml version="1.0" encoding="UTF-8" standalone="no"?>
<!-- Created with Inkscape (http://www.inkscape.org/) -->

<svg
   xmlns:svg="http://www.w3.org/2000/svg"
   xmlns="http://www.w3.org/2000/svg"
   xmlns:xlink="http://www.w3.org/1999/xlink"
   version="1.0"
   width="100"
   height="100"
   id="svg2">
  <defs
     id="defs4">
    <linearGradient
       id="linearGradient23837">
      <stop
         id="stop23839"
         style="stop-color:#ffba00;stop-opacity:1"
         offset="0" />
      <stop
         id="stop23841"
         style="stop-color:#ffffba;stop-opacity:1"
         offset="1" />
    </linearGradient>
    <linearGradient
       id="linearGradient10084">
      <stop
         id="stop10086"
         style="stop-color:#000000;stop-opacity:1"
         offset="0" />
      <stop
         id="stop10088"
         style="stop-color:#000000;stop-opacity:0"
         offset="1" />
    </linearGradient>
    <linearGradient
       id="linearGradient5197">
      <stop
         id="stop5199"
         style="stop-color:#000000;stop-opacity:1"
         offset="0" />
      <stop
         id="stop5201"
         style="stop-color:#ffffff;stop-opacity:1"
         offset="1" />
    </linearGradient>
    <linearGradient
       id="linearGradient3225">
      <stop
         id="stop3227"
         style="stop-color:#000000;stop-opacity:0.71951199"
         offset="0" />
      <stop
         id="stop3229"
         style="stop-color:#ffffff;stop-opacity:0"
         offset="1" />
    </linearGradient>
    <linearGradient
       x1="263.61029"
       y1="435.38452"
       x2="358.50229"
       y2="314.54004"
       id="linearGradient7163"
       xlink:href="#linearGradient5197"
       gradientUnits="userSpaceOnUse"
       spreadMethod="reflect" />
    <linearGradient
       x1="353.82788"
       y1="353.77969"
       x2="370.98239"
       y2="331.95367"
       id="linearGradient10090"
       xlink:href="#linearGradient5197"
       gradientUnits="userSpaceOnUse" />
    <linearGradient
       x1="353.82788"
       y1="353.77969"
       x2="370.98239"
       y2="331.95367"
       id="linearGradient10111"
       xlink:href="#linearGradient5197"
       gradientUnits="userSpaceOnUse" />
    <linearGradient
       x1="283.11636"
       y1="420.78415"
       x2="450.77399"
       y2="341.96973"
       id="linearGradient11090"
       xlink:href="#linearGradient5197"
       gradientUnits="userSpaceOnUse" />
    <linearGradient
       x1="278.7821"
       y1="598.48175"
       x2="300.01877"
       y2="538.17981"
       id="linearGradient23835"
       xlink:href="#linearGradient23837"
       gradientUnits="userSpaceOnUse" />
    <linearGradient
       x1="278.7821"
       y1="598.48175"
       x2="300.01877"
       y2="538.17981"
       id="linearGradient3203"
       xlink:href="#linearGradient23837"
       gradientUnits="userSpaceOnUse" />
    <linearGradient
       x1="375.17139"
       y1="481.12695"
       x2="375.17139"
       y2="627.55237"
       id="linearGradient5169"
       xlink:href="#linearGradient3225"
       gradientUnits="userSpaceOnUse" />
    <linearGradient
       x1="374.40475"
       y1="322.73111"
       x2="376.95914"
       y2="480.08231"
       id="linearGradient3323"
       xlink:href="#linearGradient3225"
       gradientUnits="userSpaceOnUse"
       gradientTransform="matrix(1.02355,0,0,1.05045,-12.2001,-42.4158)" />
    <linearGradient
       x1="380.47522"
       y1="608.65906"
       x2="381.77103"
       y2="498.26285"
       id="linearGradient3331"
       xlink:href="#linearGradient3225"
       gradientUnits="userSpaceOnUse" />
    <linearGradient
       x1="351.30554"
       y1="540.31189"
       x2="353.6087"
       y2="645.33484"
       id="linearGradient3347"
       xlink:href="#linearGradient3225"
       gradientUnits="userSpaceOnUse" />
    <linearGradient
       x1="353.82788"
       y1="353.77969"
       x2="370.98239"
       y2="331.95367"
       id="linearGradient2254"
       xlink:href="#linearGradient5197"
       gradientUnits="userSpaceOnUse" />
    <linearGradient
       x1="416.03726"
       y1="314.99216"
       x2="416.67383"
       y2="287.50903"
       id="linearGradient2365"
       xlink:href="#linearGradient5197"
       gradientUnits="userSpaceOnUse"
       gradientTransform="matrix(1.59149,0,0,1.59149,-1056.2,29.129)" />
    <linearGradient
       x1="333.62714"
       y1="305.53073"
       x2="338.83194"
       y2="276.24545"
       id="linearGradient2368"
       xlink:href="#linearGradient5197"
       gradientUnits="userSpaceOnUse"
       gradientTransform="matrix(1.59149,0,0,1.59149,-1056.2,29.129)" />
    <linearGradient
       x1="379.11264"
       y1="378.87973"
       x2="383.80917"
       y2="225.32318"
       id="linearGradient2371"
       xlink:href="#linearGradient5197"
       gradientUnits="userSpaceOnUse"
       gradientTransform="matrix(1.59149,0,0,1.59149,-1056.2,29.129)"
       spreadMethod="repeat" />
    <linearGradient
       x1="267.00482"
       y1="450.1579"
       x2="195.34068"
       y2="423.26831"
       id="linearGradient2375"
       xlink:href="#linearGradient5197"
       gradientUnits="userSpaceOnUse"
       gradientTransform="matrix(1.59149,0,0,1.59149,-1056.2,29.129)" />
    <linearGradient
       x1="346.8956"
       y1="409.87292"
       x2="406.49899"
       y2="371.66501"
       id="linearGradient2379"
       xlink:href="#linearGradient23837"
       gradientUnits="userSpaceOnUse"
       gradientTransform="matrix(1.59149,0,0,1.59149,-1056.2,29.129)" />
    <linearGradient
       x1="228.8004"
       y1="401.76709"
       x2="361.57016"
       y2="343.16568"
       id="linearGradient2382"
       xlink:href="#linearGradient5197"
       gradientUnits="userSpaceOnUse"
       gradientTransform="matrix(1.59149,0,0,1.59149,-1056.2,29.129)" />
    <linearGradient
       x1="335.76212"
       y1="383.67514"
       x2="432.98227"
       y2="334.34232"
       id="linearGradient2385"
       xlink:href="#linearGradient5197"
       gradientUnits="userSpaceOnUse"
       gradientTransform="matrix(1.59149,0,0,1.59149,-1056.2,29.129)" />
    <linearGradient
       x1="584.44714"
       y1="496.83411"
       x2="411.60892"
       y2="312.98669"
       id="linearGradient2388"
       xlink:href="#linearGradient5197"
       gradientUnits="userSpaceOnUse"
       gradientTransform="matrix(1.59149,0,0,1.59149,-1056.2,29.129)" />
    <linearGradient
       x1="533.03326"
       y1="446.52438"
       x2="547.33417"
       y2="428.58325"
       id="linearGradient2392"
       xlink:href="#linearGradient3225"
       gradientUnits="userSpaceOnUse"
       gradientTransform="matrix(1.59149,0,0,1.59149,-1056.2,29.129)" />
    <linearGradient
       x1="278.7821"
       y1="598.48175"
       x2="300.01877"
       y2="538.17981"
       id="linearGradient2879"
       xlink:href="#linearGradient23837"
       gradientUnits="userSpaceOnUse"
       gradientTransform="matrix(0.27721745,0,0,0.3021025,-7.1104811,-84.903823)" />
    <linearGradient
       x1="278.7821"
       y1="598.48175"
       x2="300.01877"
       y2="538.17981"
       id="linearGradient2882"
       xlink:href="#linearGradient23837"
       gradientUnits="userSpaceOnUse"
       gradientTransform="matrix(0.27721745,0,0,0.3021025,-52.037791,-84.903823)" />
    <linearGradient
       x1="353.82788"
       y1="353.77969"
       x2="370.98239"
       y2="331.95367"
       id="linearGradient2890"
       xlink:href="#linearGradient5197"
       gradientUnits="userSpaceOnUse"
       gradientTransform="matrix(0.28610371,0,0,0.25431388,-56.989872,-55.929596)" />
    <linearGradient
       x1="416.03726"
       y1="314.99216"
       x2="416.67383"
       y2="287.50903"
       id="linearGradient2895"
       xlink:href="#linearGradient5197"
       gradientUnits="userSpaceOnUse"
       gradientTransform="matrix(0.25431388,0,0,0.25431388,-45.11862,-55.929596)" />
    <linearGradient
       x1="333.62714"
       y1="305.53073"
       x2="338.83194"
       y2="276.24545"
       id="linearGradient2898"
       xlink:href="#linearGradient5197"
       gradientUnits="userSpaceOnUse"
       gradientTransform="matrix(0.25431388,0,0,0.25431388,-45.11862,-55.929596)" />
    <linearGradient
       x1="379.11264"
       y1="378.87973"
       x2="383.80917"
       y2="225.32318"
       id="linearGradient2901"
       xlink:href="#linearGradient5197"
       gradientUnits="userSpaceOnUse"
       gradientTransform="matrix(0.25431388,0,0,0.25431388,-45.11862,-55.929596)"
       spreadMethod="repeat" />
    <linearGradient
       x1="267.00482"
       y1="450.1579"
       x2="195.34068"
       y2="423.26831"
       id="linearGradient2905"
       xlink:href="#linearGradient5197"
       gradientUnits="userSpaceOnUse"
       gradientTransform="matrix(0.25431388,0,0,0.25431388,-45.11862,-55.929596)" />
    <linearGradient
       x1="346.8956"
       y1="409.87292"
       x2="406.49899"
       y2="371.66501"
       id="linearGradient2909"
       xlink:href="#linearGradient23837"
       gradientUnits="userSpaceOnUse"
       gradientTransform="matrix(0.25431388,0,0,0.25431388,-45.11862,-55.929596)" />
    <linearGradient
       x1="228.8004"
       y1="401.76709"
       x2="361.57016"
       y2="343.16568"
       id="linearGradient2912"
       xlink:href="#linearGradient5197"
       gradientUnits="userSpaceOnUse"
       gradientTransform="matrix(0.25431388,0,0,0.25431388,-45.11862,-55.929596)" />
    <linearGradient
       x1="335.76212"
       y1="383.67514"
       x2="432.98227"
       y2="334.34232"
       id="linearGradient2915"
       xlink:href="#linearGradient5197"
       gradientUnits="userSpaceOnUse"
       gradientTransform="matrix(0.25431388,0,0,0.25431388,-45.11862,-55.929596)" />
    <linearGradient
       x1="584.44714"
       y1="496.83411"
       x2="411.60892"
       y2="312.98669"
       id="linearGradient2918"
       xlink:href="#linearGradient5197"
       gradientUnits="userSpaceOnUse"
       gradientTransform="matrix(0.25431388,0,0,0.25431388,-45.11862,-55.929596)" />
    <linearGradient
       x1="283.11636"
       y1="420.78415"
       x2="450.77399"
       y2="341.96973"
       id="linearGradient2921"
       xlink:href="#linearGradient5197"
       gradientUnits="userSpaceOnUse"
       gradientTransform="matrix(0.28413183,0,0,0.3042182,-58.563863,-73.108938)" />
    <linearGradient
       x1="533.03326"
       y1="446.52438"
       x2="547.33417"
       y2="428.58325"
       id="linearGradient2924"
       xlink:href="#linearGradient3225"
       gradientUnits="userSpaceOnUse"
       gradientTransform="matrix(0.25431388,0,0,0.25431388,-45.11862,-55.929596)" />
    <linearGradient
       x1="263.61029"
       y1="435.38452"
       x2="358.50229"
       y2="314.54004"
       id="linearGradient2929"
       xlink:href="#linearGradient5197"
       gradientUnits="userSpaceOnUse"
       gradientTransform="matrix(0.26522955,0,0,0.25042604,-49.188627,-54.42192)"
       spreadMethod="reflect" />
    <linearGradient
       id="linearGradient23837-1">
      <stop
         id="stop23839-5"
         style="stop-color:#ffba00;stop-opacity:1"
         offset="0" />
      <stop
         id="stop23841-9"
         style="stop-color:#ffffba;stop-opacity:1"
         offset="1" />
    </linearGradient>
    <linearGradient
       id="linearGradient2950">
      <stop
         id="stop2952"
         style="stop-color:#ffba00;stop-opacity:1"
         offset="0" />
      <stop
         id="stop2954"
         style="stop-color:#ffffba;stop-opacity:1"
         offset="1" />
    </linearGradient>
    <linearGradient
       x1="353.82788"
       y1="353.77969"
       x2="370.98239"
       y2="331.95367"
       id="linearGradient2254-7"
       xlink:href="#linearGradient5197-6"
       gradientUnits="userSpaceOnUse" />
    <linearGradient
       id="linearGradient5197-6">
      <stop
         id="stop5199-7"
         style="stop-color:#000000;stop-opacity:1"
         offset="0" />
      <stop
         id="stop5201-3"
         style="stop-color:#ffffff;stop-opacity:1"
         offset="1" />
    </linearGradient>
    <linearGradient
       id="linearGradient2961">
      <stop
         id="stop2963"
         style="stop-color:#000000;stop-opacity:1"
         offset="0" />
      <stop
         id="stop2965"
         style="stop-color:#ffffff;stop-opacity:1"
         offset="1" />
    </linearGradient>
    <linearGradient
       x1="416.03726"
       y1="314.99216"
       x2="416.67383"
       y2="287.50903"
       id="linearGradient2895-5"
       xlink:href="#linearGradient5197-6"
       gradientUnits="userSpaceOnUse"
       gradientTransform="matrix(0.25431388,0,0,0.25431388,76.676657,-42.787492)" />
    <linearGradient
       id="linearGradient2968">
      <stop
         id="stop2970"
         style="stop-color:#000000;stop-opacity:1"
         offset="0" />
      <stop
         id="stop2972"
         style="stop-color:#ffffff;stop-opacity:1"
         offset="1" />
    </linearGradient>
    <linearGradient
       x1="333.62714"
       y1="305.53073"
       x2="338.83194"
       y2="276.24545"
       id="linearGradient2898-6"
       xlink:href="#linearGradient5197-6"
       gradientUnits="userSpaceOnUse"
       gradientTransform="matrix(0.25431388,0,0,0.25431388,76.676657,-42.787492)" />
    <linearGradient
       id="linearGradient2975">
      <stop
         id="stop2977"
         style="stop-color:#000000;stop-opacity:1"
         offset="0" />
      <stop
         id="stop2979"
         style="stop-color:#ffffff;stop-opacity:1"
         offset="1" />
    </linearGradient>
    <linearGradient
       x1="379.11264"
       y1="378.87973"
       x2="383.80917"
       y2="225.32318"
       id="linearGradient2901-3"
       xlink:href="#linearGradient5197-6"
       gradientUnits="userSpaceOnUse"
       gradientTransform="matrix(0.25431388,0,0,0.25431388,76.676657,-42.787492)"
       spreadMethod="repeat" />
    <linearGradient
       id="linearGradient2982">
      <stop
         id="stop2984"
         style="stop-color:#000000;stop-opacity:1"
         offset="0" />
      <stop
         id="stop2986"
         style="stop-color:#ffffff;stop-opacity:1"
         offset="1" />
    </linearGradient>
    <linearGradient
       id="linearGradient2989">
      <stop
         id="stop2991"
         style="stop-color:#000000;stop-opacity:1"
         offset="0" />
      <stop
         id="stop2993"
         style="stop-color:#ffffff;stop-opacity:1"
         offset="1" />
    </linearGradient>
    <linearGradient
       x1="346.8956"
       y1="409.87292"
       x2="406.49899"
       y2="371.66501"
       id="linearGradient2909-4"
       xlink:href="#linearGradient23837-1"
       gradientUnits="userSpaceOnUse"
       gradientTransform="matrix(0.25431388,0,0,0.25431388,76.676657,-42.787492)" />
    <linearGradient
       id="linearGradient2996">
      <stop
         id="stop2998"
         style="stop-color:#ffba00;stop-opacity:1"
         offset="0" />
      <stop
         id="stop3000"
         style="stop-color:#ffffba;stop-opacity:1"
         offset="1" />
    </linearGradient>
    <linearGradient
       id="linearGradient3003">
      <stop
         id="stop3005"
         style="stop-color:#000000;stop-opacity:1"
         offset="0" />
      <stop
         id="stop3007"
         style="stop-color:#ffffff;stop-opacity:1"
         offset="1" />
    </linearGradient>
    <linearGradient
       id="linearGradient3010">
      <stop
         id="stop3012"
         style="stop-color:#000000;stop-opacity:1"
         offset="0" />
      <stop
         id="stop3014"
         style="stop-color:#ffffff;stop-opacity:1"
         offset="1" />
    </linearGradient>
    <linearGradient
       id="linearGradient3017">
      <stop
         id="stop3019"
         style="stop-color:#000000;stop-opacity:1"
         offset="0" />
      <stop
         id="stop3021"
         style="stop-color:#ffffff;stop-opacity:1"
         offset="1" />
    </linearGradient>
    <linearGradient
       id="linearGradient3024">
      <stop
         id="stop3026"
         style="stop-color:#000000;stop-opacity:1"
         offset="0" />
      <stop
         id="stop3028"
         style="stop-color:#ffffff;stop-opacity:1"
         offset="1" />
    </linearGradient>
    <linearGradient
       x1="533.03326"
       y1="446.52438"
       x2="547.33417"
       y2="428.58325"
       id="linearGradient2924-3"
       xlink:href="#linearGradient3225-9"
       gradientUnits="userSpaceOnUse"
       gradientTransform="matrix(0.25431388,0,0,0.25431388,76.676657,-42.787492)" />
    <linearGradient
       id="linearGradient3225-9">
      <stop
         id="stop3227-0"
         style="stop-color:#000000;stop-opacity:0.71951199"
         offset="0" />
      <stop
         id="stop3229-8"
         style="stop-color:#ffffff;stop-opacity:0"
         offset="1" />
    </linearGradient>
    <linearGradient
       id="linearGradient3035">
      <stop
         id="stop3037"
         style="stop-color:#000000;stop-opacity:1"
         offset="0" />
      <stop
         id="stop3039"
         style="stop-color:#ffffff;stop-opacity:1"
         offset="1" />
    </linearGradient>
    <linearGradient
       x1="278.7821"
       y1="598.48175"
       x2="300.01877"
       y2="538.17981"
       id="linearGradient3250"
       xlink:href="#linearGradient23837-1"
       gradientUnits="userSpaceOnUse"
       gradientTransform="matrix(0.27721745,0,0,0.3021025,69.757486,-71.761719)" />
    <filter
       x="0"
       y="0"
       width="1"
       height="1"
       color-interpolation-filters="sRGB"
       id="filter4704">
      <feColorMatrix
         id="feColorMatrix4706"
         type="saturate"
         values="1"
         result="result91" />
      <feComposite
         in2="result91"
         operator="arithmetic"
         k1="0.3"
         k2="0.4"
         k3="0.3"
         k4="0"
         result="result15"
         id="feComposite4708" />
      <feGaussianBlur
         id="feGaussianBlur4710"
         in="result15"
         result="result8"
         stdDeviation="5" />
      <feComposite
         in2="result8"
         operator="in"
         result="result13"
         id="feComposite4712" />
      <feComposite
         in2="result13"
         operator="arithmetic"
         k1="0.3"
         k2="0.4"
         k3="0.3"
         k4="0"
         in="result15"
         result="result6"
         id="feComposite4714" />
      <feFlood
         id="feFlood4716"
         flood-color="rgb(128,172,0)"
         flood-opacity="1"
         in="result6"
         result="result10" />
      <feBlend
         in2="result10"
         mode="darken"
         in="result6"
         result="result12"
         id="feBlend4718" />
      <feBlend
         in2="result6"
         mode="screen"
         result="result14"
         id="feBlend4720" />
      <feComposite
         in2="SourceGraphic"
         operator="in"
         in="result14"
         result="result2"
         id="feComposite4722" />
    </filter>
    <filter
       x="0"
       y="0"
       width="1"
       height="1"
       color-interpolation-filters="sRGB"
       id="filter4724">
      <feColorMatrix
         id="feColorMatrix4726"
         type="saturate"
         values="1"
         result="result91" />
      <feComposite
         in2="result91"
         operator="arithmetic"
         k1="0.3"
         k2="0.4"
         k3="0.3"
         k4="0"
         result="result15"
         id="feComposite4728" />
      <feGaussianBlur
         id="feGaussianBlur4730"
         in="result15"
         result="result8"
         stdDeviation="5" />
      <feComposite
         in2="result8"
         operator="in"
         result="result13"
         id="feComposite4732" />
      <feComposite
         in2="result13"
         operator="arithmetic"
         k1="0.3"
         k2="0.4"
         k3="0.3"
         k4="0"
         in="result15"
         result="result6"
         id="feComposite4734" />
      <feFlood
         id="feFlood4736"
         flood-color="rgb(128,172,0)"
         flood-opacity="1"
         in="result6"
         result="result10" />
      <feBlend
         in2="result10"
         mode="darken"
         in="result6"
         result="result12"
         id="feBlend4738" />
      <feBlend
         in2="result6"
         mode="screen"
         result="result14"
         id="feBlend4740" />
      <feComposite
         in2="SourceGraphic"
         operator="in"
         in="result14"
         result="result2"
         id="feComposite4742" />
    </filter>
    <filter
       x="0"
       y="0"
       width="1"
       height="1"
       color-interpolation-filters="sRGB"
       id="filter4744">
      <feColorMatrix
         id="feColorMatrix4746"
         type="saturate"
         values="1"
         result="result91" />
      <feComposite
         in2="result91"
         operator="arithmetic"
         k1="0.3"
         k2="0.4"
         k3="0.3"
         k4="0"
         result="result15"
         id="feComposite4748" />
      <feGaussianBlur
         id="feGaussianBlur4750"
         in="result15"
         result="result8"
         stdDeviation="5" />
      <feComposite
         in2="result8"
         operator="in"
         result="result13"
         id="feComposite4752" />
      <feComposite
         in2="result13"
         operator="arithmetic"
         k1="0.3"
         k2="0.4"
         k3="0.3"
         k4="0"
         in="result15"
         result="result6"
         id="feComposite4754" />
      <feFlood
         id="feFlood4756"
         flood-color="rgb(128,172,0)"
         flood-opacity="1"
         in="result6"
         result="result10" />
      <feBlend
         in2="result10"
         mode="darken"
         in="result6"
         result="result12"
         id="feBlend4758" />
      <feBlend
         in2="result6"
         mode="screen"
         result="result14"
         id="feBlend4760" />
      <feComposite
         in2="SourceGraphic"
         operator="in"
         in="result14"
         result="result2"
         id="feComposite4762" />
    </filter>
  </defs>
  <path
     d="m 40.51132,17.84375 c -5.6928,0 -10.28125,5.319661 -10.28125,11.875 0,3.862123 1.61334,7.269944 4.09375,9.4375 -1.45313,0.823773 -3.2902,3.705368 -3.78125,4 -0.5729,0.343738 -5.1667,6.062522 -5.96875,7.09375 -0.80206,1.031212 -1.14586,4.71891 -2.0625,9.53125 -0.91664,4.812355 2.86459,19.229189 3.09375,19.6875 C 25.83423,79.927077 27.19882,82 27.19882,82 c 0,0.229163 6.76044,0.468775 7.5625,1.15625 0.80205,0.687474 3.09378,3.083374 4.125,4.343746 1.03121,1.26038 3.34382,3.42713 5.40625,4.6875 2.06243,1.26038 7.90627,0.12499 8.59375,-0.21875 0.68748,-0.34373 3.875,-3.5625 3.875,-3.5625 0,0 2.31253,-1.604169 3.34375,-2.062496 1.03121,-0.458328 4.57295,-2.979173 5.71875,-3.4375 1.14579,-0.458311 7.10418,-1.354173 7.5625,-1.8125 0.45831,-0.458311 1.72917,-1.500022 1.84375,-2.53125 0.11458,-1.031212 0.78126,-3.67714 1.125,-4.9375 0.34374,-1.260376 1.60418,-5.708374 2.0625,-6.96875 0.45832,-1.260376 0.35417,-4.708472 0.46875,-9.0625 0.11458,-4.354028 -7.10421,-12.614624 -8.25,-13.875 -1.1458,-1.260376 -5.50002,-3.78125 -6.1875,-3.78125 -0.68748,0 -4.34375,0.34375 -4.34375,0.34375 l -1.625,0.9375 c 0,0 -1.69794,1.375012 -2.15625,1.71875 -0.45832,0.343737 -6.43754,0.333336 -7.8125,0.5625 -0.65857,0.109762 -3.45388,-0.941846 -6.34375,-2.0625 3.96543,-0.73223 7.16098,-4.067995 8.25,-8.4375 1.32227,3.35138 5.05252,5.78125 9.46875,5.78125 5.52028,0 10,-3.779759 10,-8.4375 0,-4.657741 -4.47972,-8.4375 -10,-8.4375 -4.20922,0 -7.80795,2.204852 -9.28125,5.3125 -0.99378,-5.359634 -5.14279,-9.375 -10.09375,-9.375 z"
     id="path17935-5"
     style="fill:#ececec;fill-opacity:1;fill-rule:evenodd;stroke:none" />
  <path
     d="m 27.72275,81.450599 c 0,0 -2.43317,-6.995377 -2.50921,-12.622085 -0.076,-5.626724 -0.38018,-8.896296 0.68433,-13.15435 1.06451,-4.258055 1.06451,-4.790304 1.06451,-4.790304 l -5.47464,10.493059 c 0,0 -0.8364,4.638225 -0.91244,5.094459 -0.076,0.456217 0.68433,8.820248 0.68433,8.820248 l 0.83641,2.889385 1.82488,2.889401 1.06451,0.988483 2.73732,-0.608296 z"
     id="path6184-9"
     style="fill:#cccccc;fill-opacity:1;fill-rule:evenodd;stroke:none" />
  <path
     d="m 72.65508,81.602661 c 0,0 2.43318,-6.995361 2.50921,-12.622085 0.076,-5.626708 0.38018,-8.89628 -0.68432,-13.154334 -1.06452,-4.258055 -1.06452,-4.79032 -1.06452,-4.79032 l 5.47464,10.493074 c 0,0 0.83641,4.638226 0.91244,5.094444 0.076,0.456217 -0.68433,8.820248 -0.68433,8.820248 l -0.8364,2.889401 -1.82488,2.889401 -1.06451,0.988467 -2.73733,-0.608296 z"
     id="path4226-6"
     style="fill:#cccccc;fill-opacity:1;fill-rule:evenodd;stroke:none" />
  <path
     d="m 50.18479,36.232896 c -1.28327,-0.04151 -2.48606,0.150717 -3.71875,0.5625 -2.54928,0.851585 -4.79693,1.980772 -5.125,2.59375 -0.14514,0.271206 -0.251,0.935031 -0.25,1.46875 0.002,0.884375 0.2993,1.322862 3.5625,5.03125 1.9693,2.23796 3.85398,4.205105 4.15625,4.375 1.4287,0.802992 2.5536,0.150145 5.46875,-3.1875 1.251,-1.432313 2.03867,-2.445237 2.40625,-2.96875 0.0172,-0.02456 0.0786,-0.07148 0.0937,-0.09375 l 0,-0.03125 1.75,-2.21875 c 0.0139,0.117733 0.0944,0.03678 0.28125,-0.21875 0.46525,-0.636244 0.43511,-1.752395 -0.0625,-2.25 -0.2244,-0.224402 -0.83382,-0.616738 -1.34375,-0.875 -2.76446,-1.400193 -5.07997,-2.118319 -7.21875,-2.1875 z"
     id="path3205-1"
     style="fill:#cda809;fill-opacity:1;fill-rule:evenodd;stroke:none" />
  <path
     d="m 16.58165,96.761746 c -2.21175,-0.78859 -3.06914,-2.24929 -2.91215,-4.96127 0.22595,-3.90316 2.70843,-6.748536 8.02003,-9.19241 3.24753,-1.494189 5.23541,-1.835306 9.84635,-1.689636 3.2597,0.102973 4.14533,0.223635 5.98725,0.815632 4.10347,1.318861 7.53321,3.79602 9.00835,6.506334 0.77078,1.41618 1.11849,3.75892 0.80551,5.42725 -0.22132,1.17973 -1.26668,2.40166 -2.55537,2.98704 -0.95508,0.43383 -1.95423,0.46646 -14.12498,0.46128 -10.43746,-0.005 -13.29577,-0.0764 -14.07499,-0.35422 z"
     id="path3335"
     style="fill:#cda809" />
  <path
     d="m 55.45231,96.827506 c -0.41962,-0.14578 -1.18058,-0.66371 -1.69103,-1.15096 -3.41877,-3.26339 -0.50127,-9.793954 5.69966,-12.758156 3.1759,-1.518174 6.00952,-2.125719 9.84475,-2.11081 3.91677,0.01523 5.31492,0.281401 8.37872,1.595084 3.00722,1.289427 4.74511,2.43745 6.35291,4.196645 2.05611,2.249717 2.89739,5.593587 1.96731,7.819557 -0.44227,1.05851 -1.69121,2.11164 -2.90351,2.44833 -1.28961,0.35817 -26.60824,0.32182 -27.64881,-0.0397 z"
     id="path3331"
     style="fill:#cda809" />
  <path
     d="m 46.34802,95.530666 c 0.95316,-1.08928 1.20747,-2.16746 1.03069,-4.36977 -0.0875,-1.09066 -0.35718,-2.02013 -0.84723,-2.9205 -0.84036,-1.544027 -3.05513,-3.678918 -4.98117,-4.801518 -0.74628,-0.434981 -1.25917,-0.793404 -1.13975,-0.796488 0.46484,-0.01202 3.94237,1.970031 5.75725,3.281381 1.05016,0.758792 2.30992,1.520745 2.79947,1.693215 1.14731,0.40421 1.73615,0.16154 4.57767,-1.886504 1.18892,-0.856923 3.19164,-2.006416 4.4505,-2.554421 3.18113,-1.384808 3.97822,-1.544461 1.46151,-0.29273 -6.17235,3.069923 -8.98742,9.219725 -5.81827,12.710595 l 0.79636,0.87719 -0.98535,-0.72356 c -0.87112,-0.63968 -1.25436,-0.73703 -3.30609,-0.83982 -2.29918,-0.11519 -2.33137,-0.10852 -3.46516,0.71844 l -1.14441,0.83471 0.81398,-0.93022 z"
     id="path3321"
     style="fill:#303030;fill-opacity:1" />
  <path
     d="M 21.53755,79.096579 C 17.97227,73.714535 16.08915,68.244427 15.69051,62.112028 15.59771,60.684458 15.40106,59.395719 15.2535,59.248163 14.75436,58.749024 12.01675,59.884631 7.64117,62.405862 3.3832,64.859339 3.13645,64.958221 2.28578,64.552131 1.66332,64.25499 1.51477,64.003055 1.40162,63.052556 1.23652,61.665846 1.68289,60.635433 3.3521,58.549982 5.28971,56.129183 6.46989,54.983429 9.67569,52.410824 18.81198,45.079108 21.11351,40.851015 21.75586,30.218646 22.01877,25.86684 22.18502,24.841908 23.07116,22.109922 25.88605,13.431524 33.66939,6.190236 42.73471,3.81581 c 9.98336,-2.614887 20.44453,0.346087 27.65681,7.828091 5.21262,5.407564 7.35988,10.578357 7.83128,18.858399 0.59193,10.397117 2.93829,14.626728 12.25091,22.083852 4.87861,3.906567 8.10305,7.877867 8.1548,10.043648 0.0305,1.276387 -0.29557,1.824488 -1.22399,2.057518 -0.71127,0.178508 -1.5723,-0.220502 -6.21244,-2.878902 -3.51725,-2.015077 -6.00012,-2.97812 -6.53455,-2.53459 -0.21645,0.179643 -0.3409,0.850403 -0.34155,1.840931 -10e-4,2.067873 -0.59281,5.620204 -1.40396,8.432408 -1.07085,3.712558 -2.85289,7.173007 -6.25569,12.147635 -0.0924,0.135139 -0.38155,0.112113 -0.69441,-0.05532 -0.53006,-0.28367 -0.52652,-0.300241 0.31773,-1.488564 0.46956,-0.660933 1.04248,-1.573624 1.27315,-2.028212 0.37605,-0.741087 0.37824,-0.826529 0.0212,-0.826529 -0.3029,0 -0.39211,-0.258646 -0.37276,-1.080829 0.014,-0.594458 -0.0152,-3.71299 -0.0649,-6.930069 -0.0771,-4.988259 -0.1765,-6.221453 -0.67554,-8.377981 C 74.62244,52.963063 71.01561,46.615978 66.13087,42.729258 63.54202,40.669359 62.52584,40.268462 60.67085,40.575255 l -1.48904,0.246262 -0.10407,-0.709112 c -0.0973,-0.662722 -0.0446,-0.709287 0.80556,-0.712115 2.27057,-0.0075 5.5213,-1.43091 6.99608,-3.063323 1.21744,-1.347544 2.01787,-3.564332 2.01495,-5.580351 -0.006,-4.041227 -3.54787,-7.415865 -8.19235,-7.80524 -1.44349,-0.121014 -2.13149,-0.04099 -3.53949,0.411747 -1.94964,0.626896 -3.93485,1.993296 -4.83892,3.330597 l -0.59759,0.88396 -1.055,3.350797 c 0.60161,2.266956 0.83491,2.631706 1.26841,4.024704 0.10093,0.163311 0.1681,1.404703 -1.2189,1.287381 -1.17404,-0.0993 -0.70053,-3.752731 -1.17819,-3.75083 0.15161,-1.626963 0.0226,-2.909611 0.0569,-3.193242 -0.2805,-0.733242 -0.20612,-2.927172 -1.25944,-5.058404 -2.61594,-5.293006 -7.87433,-7.133697 -12.21532,-4.275968 -2.74717,1.808493 -4.9503,6.442803 -4.9503,10.413033 0,1.88056 0.64938,4.625346 1.508,6.37401 1.09722,2.234589 3.54967,4.520839 5.43846,5.069931 0.7946,0.230985 1.84237,0.385731 2.32837,0.343865 0.84976,-0.07322 1.01625,0.07478 4.34132,3.859139 1.90171,2.16439 3.74672,4.088655 4.10002,4.276144 1.08625,0.576416 2.18651,0.175568 3.57533,-1.302562 0.68582,-0.729933 1.78356,-1.899353 2.43943,-2.598716 1.01656,-1.083977 1.15425,-1.165872 0.93325,-0.555084 -1.15492,3.191911 -3.64808,5.514212 -5.91989,5.514212 -1.52836,0 -2.71891,-0.902513 -5.36572,-4.06753 -2.18021,-2.607057 -3.26095,-3.575517 -4.54192,-4.070022 -0.45902,-0.177198 -1.60551,-0.66659 -2.54777,-1.087509 l -1.71319,-0.765343 -0.95711,0.636068 c -4.19449,2.787499 -8.00772,8.429084 -10.22415,15.126442 -1.4214,4.295015 -1.85348,7.241144 -1.78296,12.157079 0.0821,5.722602 -0.0723,8.010898 -0.54062,8.010898 -0.35232,0 0.2217,1.265712 1.17717,2.595663 1.00899,1.404432 1.05678,1.621259 0.39541,1.794207 -0.38251,0.100032 -0.85029,-0.431258 -2.27998,-2.589464 l -7e-5,0 z"
     id="path3319"
     style="color:#000000;fill:#303030;fill-opacity:1;fill-rule:nonzero;stroke-width:1;stroke-linecap:butt;stroke-linejoin:miter;stroke-miterlimit:4;stroke-opacity:1;stroke-dasharray:none;stroke-dashoffset:0;marker:none;visibility:visible;display:inline;overflow:visible;enable-background:accumulate" />
  <path
     d="m 50.15068,32.284235 -0.79058,1.976454 -0.79058,2.064277 c 0,0 0.79058,-0.131767 1.669,-0.08784 0.87842,0.04391 2.23997,0.26352 2.23997,0.26352 l -0.43921,-0.614895 -0.35137,-0.61488 c 0,0 -0.39529,-0.527055 -0.57097,-1.05411 -0.17569,-0.527056 -0.39529,-1.273703 -0.39529,-1.273703 l -0.30745,-0.570983 -0.26352,-0.08784 z"
     id="path9083-0"
     style="fill:#636363;fill-rule:evenodd;stroke:none" />
  <path
     d="m 55.66575,31.562817 a 2.447464,3.782032 0 1 1 -4.89492,0 2.447464,3.782032 0 1 1 4.89492,0 z"
     id="path10103-4"
     style="fill:#000000;fill-opacity:1;stroke:none" />
  <path
     d="m 49.76867,31.304177 a 2.73732,4.372099 0 0 1 -5.47464,0 2.73732,4.372099 0 1 1 5.47464,0 z"
     id="path8144-0"
     style="fill:#000000;fill-opacity:1;stroke:none" />
</svg>
