<?xml version="1.0" encoding="UTF-8" standalone="no"?>
<!-- Created with Inkscape (http://www.inkscape.org/) -->

<svg
   xmlns:svg="http://www.w3.org/2000/svg"
   xmlns="http://www.w3.org/2000/svg"
   xmlns:xlink="http://www.w3.org/1999/xlink"
   xmlns:sodipodi="http://sodipodi.sourceforge.net/DTD/sodipodi-0.dtd"
   xmlns:inkscape="http://www.inkscape.org/namespaces/inkscape"
   version="1.1"
   width="100"
   height="100"
   id="svg3143">
  <defs
     id="defs3145">
    <linearGradient
       x1="1466.6725"
       y1="269.99911"
       x2="1484.4534"
       y2="303.3382"
       id="linearGradient3842"
       xlink:href="#linearGradient3820"
       gradientUnits="userSpaceOnUse"
       gradientTransform="translate(-955.352,24.5758)" />
    <linearGradient
       x1="1498.1847"
       y1="231.9935"
       x2="1508.4443"
       y2="262.63425"
       id="linearGradient3840"
       xlink:href="#linearGradient3396"
       gradientUnits="userSpaceOnUse"
       gradientTransform="translate(-961.795,28.3346)" />
    <linearGradient
       x1="1466.6725"
       y1="269.99911"
       x2="1484.4534"
       y2="303.3382"
       id="linearGradient3834"
       xlink:href="#linearGradient3820"
       gradientUnits="userSpaceOnUse"
       gradientTransform="translate(-1014.66,22.4875)" />
    <linearGradient
       x1="1498.6023"
       y1="234.49939"
       x2="1506.3561"
       y2="262.63422"
       id="linearGradient3832"
       xlink:href="#linearGradient3396"
       gradientUnits="userSpaceOnUse"
       gradientTransform="translate(-1019.01,27.0816)" />
    <linearGradient
       x1="1522.775"
       y1="892.53217"
       x2="1523.0221"
       y2="916.28113"
       id="linearGradient3806"
       xlink:href="#linearGradient3800"
       gradientUnits="userSpaceOnUse"
       gradientTransform="translate(-1006.1,24.7961)" />
    <filter
       x="-0.032727271"
       y="-0.36000001"
       width="1.0654545"
       height="1.72"
       color-interpolation-filters="sRGB"
       id="filter3794">
      <feGaussianBlur
         stdDeviation="10.99209"
         id="feGaussianBlur3796" />
    </filter>
    <linearGradient
       x1="938.64874"
       y1="638.37286"
       x2="1242.624"
       y2="401.17514"
       id="linearGradient3758"
       xlink:href="#linearGradient3330"
       gradientUnits="userSpaceOnUse"
       gradientTransform="matrix(-1,0,0,1,2045.65,42.4256)" />
    <linearGradient
       x1="938.64874"
       y1="638.37286"
       x2="1242.624"
       y2="401.17514"
       id="linearGradient3750"
       xlink:href="#linearGradient3330"
       gradientUnits="userSpaceOnUse"
       gradientTransform="translate(-1024,44.354)" />
    <filter
       x="-0.088144548"
       y="-0.18791109"
       width="1.1762891"
       height="1.3758222"
       color-interpolation-filters="sRGB"
       id="filter3736">
      <feGaussianBlur
         stdDeviation="12.536909"
         id="feGaussianBlur3738" />
    </filter>
    <linearGradient
       x1="513.85217"
       y1="457.3237"
       x2="513.85217"
       y2="600.02802"
       id="linearGradient3620"
       xlink:href="#linearGradient3614"
       gradientUnits="userSpaceOnUse" />
    <linearGradient
       x1="1304.5875"
       y1="806.08667"
       x2="1304.5875"
       y2="888.87366"
       id="linearGradient3612"
       xlink:href="#linearGradient3330"
       gradientUnits="userSpaceOnUse" />
    <linearGradient
       x1="1304.5875"
       y1="806.08667"
       x2="1304.5875"
       y2="888.87366"
       id="linearGradient3608"
       xlink:href="#linearGradient3330"
       gradientUnits="userSpaceOnUse" />
    <radialGradient
       cx="712.55743"
       cy="902.17822"
       r="170.67751"
       fx="712.55743"
       fy="902.17822"
       id="radialGradient3598"
       xlink:href="#linearGradient3420"
       gradientUnits="userSpaceOnUse"
       gradientTransform="matrix(1,0,0,0.469076,0,457.161)" />
    <radialGradient
       cx="317.22787"
       cy="898.06708"
       r="170.67751"
       fx="317.22787"
       fy="898.06708"
       id="radialGradient3590"
       xlink:href="#linearGradient3420"
       gradientUnits="userSpaceOnUse"
       gradientTransform="matrix(1,0,0,0.469076,0,457.161)" />
    <filter
       x="-0.095135026"
       y="-0.16246186"
       width="1.1902699"
       height="1.3249238"
       color-interpolation-filters="sRGB"
       id="filter3580">
      <feGaussianBlur
         stdDeviation="11.052912"
         id="feGaussianBlur3582" />
    </filter>
    <radialGradient
       cx="510.06738"
       cy="418.72488"
       r="90.911514"
       fx="510.06738"
       fy="418.72488"
       id="radialGradient3434"
       xlink:href="#linearGradient3420"
       gradientUnits="userSpaceOnUse"
       gradientTransform="matrix(1,-9.77859e-8,7.85719e-8,0.80351,8.24541e-5,82.2754)" />
    <linearGradient
       x1="1563.5314"
       y1="341.2269"
       x2="1532.6458"
       y2="393.50894"
       id="linearGradient3414"
       xlink:href="#linearGradient3330"
       gradientUnits="userSpaceOnUse"
       gradientTransform="translate(-1003.36,24.9934)" />
    <radialGradient
       cx="1619.8779"
       cy="319.54004"
       r="89.638496"
       fx="1619.8779"
       fy="319.54004"
       id="radialGradient3404"
       xlink:href="#linearGradient3396"
       gradientUnits="userSpaceOnUse"
       gradientTransform="matrix(-0.75176,-0.930754,0.35943,-0.247906,1476.06,1923.79)" />
    <radialGradient
       cx="1619.8779"
       cy="319.54004"
       r="89.638496"
       fx="1619.8779"
       fy="319.54004"
       id="radialGradient3394"
       xlink:href="#linearGradient3396"
       gradientUnits="userSpaceOnUse"
       gradientTransform="matrix(-1,-9.17439e-7,3.31191e-7,-0.360996,2230.44,461.02)" />
    <linearGradient
       x1="1632.8861"
       y1="197.05765"
       x2="1664.2391"
       y2="249.1969"
       id="linearGradient3382"
       xlink:href="#linearGradient3330"
       gradientUnits="userSpaceOnUse"
       gradientTransform="translate(-1006.64,26.9981)" />
    <linearGradient
       x1="615.17139"
       y1="295.80273"
       x2="615.17139"
       y2="146.25206"
       id="linearGradient3372"
       xlink:href="#linearGradient3338"
       gradientUnits="userSpaceOnUse" />
    <linearGradient
       x1="429.12805"
       y1="272.77432"
       x2="426.80252"
       y2="143.58786"
       id="linearGradient3364"
       xlink:href="#linearGradient3338"
       gradientUnits="userSpaceOnUse" />
    <linearGradient
       x1="1510.9303"
       y1="-9.6421814"
       x2="1510.9303"
       y2="360.61771"
       id="linearGradient3360"
       xlink:href="#linearGradient3285"
       gradientUnits="userSpaceOnUse" />
    <linearGradient
       x1="1449.6846"
       y1="177.43414"
       x2="1487.1814"
       y2="237.21567"
       id="linearGradient3336"
       xlink:href="#linearGradient3330"
       gradientUnits="userSpaceOnUse"
       gradientTransform="translate(-1012.43,30.855)" />
    <linearGradient
       x1="1510.9303"
       y1="-9.6421814"
       x2="1510.9303"
       y2="360.61771"
       id="linearGradient3324"
       xlink:href="#linearGradient3285"
       gradientUnits="userSpaceOnUse" />
    <pattern
       patternUnits="userSpaceOnUse"
       width="412.68549"
       height="374.11677"
       patternTransform="translate(304.693, 17.3559)"
       id="pattern3321">
      <path
         transform="matrix(1.08629, 0, 0, 1.01042, -1434.97, 9.74262)"
         sodipodi:open="true"
         sodipodi:end="6.2831679"
         sodipodi:start="0"
         d="M 1700.8813,175.48776 A 189.95103,185.12994 0 1 1 1700.8813,175.48454"
         sodipodi:ry="185.12994"
         sodipodi:rx="189.95103"
         sodipodi:cy="175.48776"
         sodipodi:cx="1510.9303"
         id="path3283"
         style="opacity: 1; fill: url(&quot;#linearGradient3324&quot;) rgb(0, 0, 0); fill-opacity: 1; fill-rule: evenodd; stroke: none; stroke-width: 2.702; stroke-linecap: butt; stroke-linejoin: miter; stroke-miterlimit: 4; stroke-dasharray: none; stroke-dashoffset: 0pt; stroke-opacity: 1;"
         sodipodi:type="arc" />
    </pattern>
    <radialGradient
       cx="615.17139"
       cy="306.62146"
       r="77.137474"
       fx="615.17139"
       fy="306.62146"
       id="radialGradient3319"
       xlink:href="#linearGradient3303"
       gradientUnits="userSpaceOnUse"
       gradientTransform="matrix(1,0,0,1.025,0,-7.66553)" />
    <radialGradient
       cx="430.04144"
       cy="269.01694"
       r="77.137474"
       fx="430.04144"
       fy="269.01694"
       id="radialGradient3309"
       xlink:href="#linearGradient3303"
       gradientUnits="userSpaceOnUse"
       gradientTransform="matrix(1,0,0,1.2625,0,-70.617)" />
    <linearGradient
       id="linearGradient3285">
      <stop
         id="stop3287"
         style="stop-color:#ffffff;stop-opacity:1"
         offset="0" />
      <stop
         id="stop3289"
         style="stop-color:#ffffff;stop-opacity:0"
         offset="1" />
    </linearGradient>
    <linearGradient
       id="linearGradient3303">
      <stop
         id="stop3305"
         style="stop-color:#d2d2d2;stop-opacity:1"
         offset="0" />
      <stop
         id="stop3311"
         style="stop-color:#d2d2d2;stop-opacity:1"
         offset="0.88" />
      <stop
         id="stop3307"
         style="stop-color:#808080;stop-opacity:1"
         offset="1" />
    </linearGradient>
    <linearGradient
       id="linearGradient3330">
      <stop
         id="stop3332"
         style="stop-color:#ffffff;stop-opacity:1"
         offset="0" />
      <stop
         id="stop3334"
         style="stop-color:#ffffff;stop-opacity:0"
         offset="1" />
    </linearGradient>
    <linearGradient
       id="linearGradient3338">
      <stop
         id="stop3340"
         style="stop-color:#000000;stop-opacity:1"
         offset="0" />
      <stop
         id="stop3342"
         style="stop-color:#ffffff;stop-opacity:1"
         offset="1" />
    </linearGradient>
    <linearGradient
       id="linearGradient3396">
      <stop
         id="stop3398"
         style="stop-color:#ffffff;stop-opacity:1"
         offset="0" />
      <stop
         id="stop3400"
         style="stop-color:#ffffff;stop-opacity:0"
         offset="1" />
    </linearGradient>
    <linearGradient
       id="linearGradient3420">
      <stop
         id="stop3422"
         style="stop-color:#dfbe00;stop-opacity:1"
         offset="0" />
      <stop
         id="stop3436"
         style="stop-color:#deaf00;stop-opacity:1"
         offset="0.80000001" />
      <stop
         id="stop3424"
         style="stop-color:#dea101;stop-opacity:1"
         offset="1" />
    </linearGradient>
    <linearGradient
       id="linearGradient3614">
      <stop
         id="stop3616"
         style="stop-color:#ffffff;stop-opacity:1"
         offset="0" />
      <stop
         id="stop3618"
         style="stop-color:#bebebe;stop-opacity:1"
         offset="1" />
    </linearGradient>
    <linearGradient
       id="linearGradient3800">
      <stop
         id="stop3802"
         style="stop-color:#3c3c3c;stop-opacity:1"
         offset="0" />
      <stop
         id="stop3804"
         style="stop-color:#a0a0a0;stop-opacity:0"
         offset="1" />
    </linearGradient>
    <linearGradient
       id="linearGradient3820">
      <stop
         id="stop3822"
         style="stop-color:#3c3c3c;stop-opacity:1"
         offset="0" />
      <stop
         id="stop3824"
         style="stop-color:#3c3c3c;stop-opacity:0"
         offset="1" />
    </linearGradient>
    <pattern
       id="pattern4080"
       patternTransform="matrix(0.0279976, 0, 0, 0.0279976, 1.39358, 1024.16)"
       height="992.67708"
       width="980.23737"
       patternUnits="userSpaceOnUse">
      <g
         id="layer1-2"
         inkscape:label="Capa 1"
         transform="translate(-20.9126, -11.4214)">
        <g
           id="g3844">
          <path
             sodipodi:type="arc"
             style="opacity: 0.8; fill: rgb(160, 160, 160); fill-opacity: 1; fill-rule: evenodd; stroke: none; filter: url(&quot;#filter3794&quot;);"
             id="path3764"
             sodipodi:cx="511.03577"
             sodipodi:cy="941.07721"
             sodipodi:rx="403.0433"
             sodipodi:ry="36.640301"
             d="m 914.07907,941.07721 c 0,20.23588 -180.44863,36.6403 -403.0433,36.6403 -222.59467,0 -403.04331,-16.40442 -403.04331,-36.6403 0,-20.23588 180.44864,-36.6403 403.04331,-36.6403 222.59193,0 403.03943,16.40403 403.0433,36.63966"
             sodipodi:start="0"
             sodipodi:end="6.2831679"
             sodipodi:open="true" />
          <path
             id="path3161"
             style="fill: rgb(0, 0, 0); fill-opacity: 1; fill-rule: evenodd; stroke: rgb(0, 0, 0); stroke-width: 2.3; stroke-linecap: butt; stroke-linejoin: miter; stroke-miterlimit: 4; stroke-opacity: 1; stroke-dasharray: none; stroke-dashoffset: 0pt;"
             d="m 177.14289,566.85714 c 0,0 -3.3971,16.63222 -2.8572,34.2857 5.3538,175.06286 151.68,317.14286 338.5714,317.14286 186.8915,0 336.8322,-141.23911 338.5715,-317.14286 C 851.63529,580.24242 844.51919,564 844.51919,564 c 0,0 40,8.57143 111.4286,60 62.85711,11.42857 40,-40 40,-40 0,0 -14.2857,-40 -105.7143,-111.42857 -91.4286,-71.42857 -88.9679,-95.54629 -98.9293,-139.66102 -10.0386,-44.4567 -23.9279,-103.19612 -23.9279,-103.19612 0,0 -21.1269,-92.29936 -69.1407,-140.012153 -48.0137,-47.7128 -114.0138,-77.130691 -186.807,-77.130691 -73.3372,0 -139.7658,29.920001 -187.86,78.272861 -48.0943,48.352853 -74.9972,121.727123 -74.9972,121.727123 0,0 -15.3564,58.20823 -15.0013,104.99327 0.3477,45.80217 -10.713,86.4353 -102.1415,157.86387 -91.428599,71.42857 -105.714299,111.42857 -105.714299,111.42857 0,0 -21.7864004,48.2163 41.0708,36.78773 71.428499,-47.14554 110.357799,-56.78773 110.357799,-56.78773 z"
             sodipodi:nodetypes="cssscccssccsccssccc" />
          <path
             sodipodi:type="arc"
             style="fill: url(&quot;#linearGradient3360&quot;) rgb(0, 0, 0); fill-opacity: 1; fill-rule: evenodd; stroke: none;"
             id="path3358"
             sodipodi:cx="1510.9303"
             sodipodi:cy="175.48776"
             sodipodi:rx="189.95103"
             sodipodi:ry="185.12994"
             d="m 1700.8813,175.48776 c 0,102.24445 -85.0439,185.12995 -189.951,185.12995 -104.9071,0 -189.951,-82.8855 -189.951,-185.12995 0,-102.244442 85.0439,-185.1299414 189.951,-185.1299414 104.9058,0 189.9492,82.8835354 189.951,185.1267214"
             sodipodi:start="0"
             sodipodi:end="6.2831679"
             sodipodi:open="true"
             transform="matrix(1.08629, 0, 0, 1.01042, -1130.28, 27.0986)" />
          <rect
             style="fill: none; stroke: none;"
             width="412.68549"
             height="374.11676"
             x="304.69299"
             y="17.355934"
             id="rect3326" />
          <path
             style="fill: url(&quot;#linearGradient3620&quot;) rgb(0, 0, 0); fill-opacity: 1; fill-rule: evenodd; stroke: none;"
             d="m 786.7143,659.55151 c 0,86.75456 -30.5518,167.16744 -79.9407,224.06084 -49.3889,56.8934 -336.4447,56.8934 -385.8335,0 -49.3889,-56.8934 -79.95,-135.47543 -79.95,-222.23 0,-173.50913 122.2443,-314.32814 272.8667,-314.32814 149.5054,0 271.1159,140.28665 272.8575,312.4973 z"
             id="path3170"
             sodipodi:nodetypes="cssssc" />
          <path
             style="fill: rgb(255, 255, 255); fill-opacity: 0.385714; fill-rule: evenodd; stroke: none;"
             d="m 262.40651,547.40114 c 0,0 -9.2245,86.71066 1.8449,136.52317 11.0695,49.8125 23.9838,99.62501 23.9838,99.62501 l -26.7511,8.30208 c 0,0 -14.7593,-16.60417 -27.6736,-36.89815 -12.9144,-20.29398 -28.5961,-61.8044 -28.5961,-61.8044 l 41.5104,32.28588 c 0,0 -8.3021,-35.05325 -4.6123,-73.79631 3.6899,-38.74306 7.3797,-79.33102 20.294,-104.23728 z"
             id="path3760" />
          <path
             style="fill: rgb(160, 160, 160); fill-opacity: 1; fill-rule: evenodd; stroke: none; filter: url(&quot;#filter3580&quot;);"
             d="m 368.6692,405.27337 c 0,0 12.05818,18.47268 20.30034,18.72736 13.63524,1.45314 17.46215,15.84832 30.96121,14.8841 28.92656,34.71186 54.33399,66.89606 81.3321,80.39512 9.6204,6.30827 20.09061,7.84448 28.92655,-7.45227 15.4275,-13.49905 50.92381,-51.52304 58.50683,-66.22056 11.17839,-12.89982 8.65072,-31.79197 8.65072,-31.79197 0,0 19.1312,-7.59642 28.59289,-8.26803 10.68676,-0.75858 1.57026,-19.33477 11.04357,-21.09433 -2.38337,-15.24072 12.43134,-14.99169 -4.9246,-16.92013 -17.35593,-1.92843 -237.19774,-13.49906 -254.55367,-1.92843 -17.35593,11.57062 -20.40657,18.45634 -8.83594,39.66914 z"
             id="path3438"
             sodipodi:nodetypes="cccccccscssc" />
          <path
             sodipodi:type="arc"
             style="fill: url(&quot;#linearGradient3372&quot;) rgb(0, 0, 0); fill-opacity: 1; fill-rule: evenodd; stroke: rgb(0, 0, 0); stroke-width: 8.72905; stroke-linecap: butt; stroke-linejoin: miter; stroke-miterlimit: 4; stroke-opacity: 1; stroke-dasharray: none; stroke-dashoffset: 0pt;"
             id="path3225"
             sodipodi:cx="615.17139"
             sodipodi:cy="284.44446"
             sodipodi:rx="109.92091"
             sodipodi:ry="101.24294"
             d="m 725.0923,284.44446 c 0,55.91493 -49.21327,101.24294 -109.92091,101.24294 -60.70765,0 -109.92092,-45.32801 -109.92092,-101.24294 0,-55.91494 49.21327,-101.24294 109.92092,-101.24294 60.70689,0 109.91985,45.32693 109.92091,101.24118"
             sodipodi:start="0"
             sodipodi:end="6.2831679"
             sodipodi:open="true"
             transform="matrix(1.04353, 0, 0, 1.01869, -33.9603, -13.1746)" />
          <path
             style="fill: rgb(255, 255, 255); fill-opacity: 0.385714; fill-rule: evenodd; stroke: none;"
             d="m 764.29947,551.97826 c 0,0 9.2245,86.71066 -1.8449,136.52317 -11.0695,49.8125 -23.9838,99.62501 -23.9838,99.62501 l 26.7511,8.30208 c 0,0 14.7593,-16.60417 27.6736,-36.89815 12.9144,-20.29398 28.5961,-61.8044 28.5961,-61.8044 l -41.5104,32.28588 c 0,0 8.3021,-35.05325 4.6123,-73.79631 -3.6899,-38.74306 -7.3797,-79.33102 -20.294,-104.23728 z"
             id="path3762" />
          <path
             sodipodi:nodetypes="cccssc"
             d="m 862.16528,897.75899 c 0,16.90039 -4.779,23.00474 -13.4195,37.65479 l -314.516,0 c -8.6405,-14.65005 -13.4195,-20.7544 -13.4195,-37.65479 0,-67.60154 76.4635,-122.46658 170.6775,-122.46658 94.2129,0 170.6759,54.86365 170.6775,122.46446"
             style="fill: rgb(160, 160, 160); fill-opacity: 1; fill-rule: evenodd; stroke: none; filter: url(&quot;#filter3736&quot;);"
             id="path3740" />
          <path
             id="path3193"
             style="fill: url(&quot;#radialGradient3598&quot;) rgb(0, 0, 0); fill-opacity: 1; fill-rule: evenodd; stroke: none;"
             d="m 883.23492,903.47273 c 0,16.90039 -4.7789,23.00474 -13.4195,37.65479 l -314.516,0 c -8.6405,-14.65005 -13.4195,-20.7544 -13.4195,-37.65479 0,-67.60154 76.4635,-122.46658 170.6775,-122.46658 94.213,0 170.6759,54.86365 170.6775,122.46446"
             sodipodi:nodetypes="cccssc" />
          <path
             id="path3622"
             style="fill: rgb(160, 160, 160); fill-opacity: 1; fill-rule: evenodd; stroke: none; filter: url(&quot;#filter3736&quot;);"
             d="m 509.1182,899.61586 c 0,16.90039 -4.779,23.00474 -13.4195,37.65479 l -314.516,0 c -8.6405,-14.65005 -13.4195,-20.7544 -13.4195,-37.65479 0,-67.60154 76.4635,-122.46658 170.6775,-122.46658 94.2129,0 170.6759,54.86365 170.6775,122.46446"
             sodipodi:nodetypes="cccssc" />
          <path
             sodipodi:nodetypes="cccssc"
             d="m 487.90539,903.47273 c 0,16.90039 -4.779,23.00474 -13.4195,37.65479 l -314.516,0 c -8.6405,-14.65005 -13.4195,-20.7544 -13.4195,-37.65479 0,-67.60154 76.4635,-122.46658 170.6775,-122.46658 94.2129,0 170.6759,54.86365 170.6775,122.46446"
             style="fill: url(&quot;#radialGradient3590&quot;) rgb(0, 0, 0); fill-opacity: 1; fill-rule: evenodd; stroke: none;"
             id="path3200" />
          <path
             sodipodi:type="arc"
             style="fill: rgb(0, 0, 0); fill-opacity: 1; fill-rule: evenodd; stroke: none;"
             id="path3227"
             sodipodi:cx="617.09979"
             sodipodi:cy="299.87195"
             sodipodi:rx="82.922791"
             sodipodi:ry="83.887009"
             d="m 700.02258,299.87195 c 0,46.32951 -37.12579,83.88701 -82.92279,83.88701 -45.79699,0 -82.92279,-37.5575 -82.92279,-83.88701 0,-46.32952 37.1258,-83.88701 82.92279,-83.88701 45.79643,0 82.922,37.5566 82.92279,83.88555"
             sodipodi:start="0"
             sodipodi:end="6.2831679"
             sodipodi:open="true"
             transform="matrix(1.40455, 0, 0, 1.10105, -256.829, -44.9092)" />
          <path
             sodipodi:type="arc"
             style="fill: url(&quot;#linearGradient3364&quot;) rgb(0, 0, 0); fill-opacity: 1; fill-rule: evenodd; stroke: rgb(0, 0, 0); stroke-width: 7.77281; stroke-linecap: butt; stroke-linejoin: miter; stroke-miterlimit: 4; stroke-opacity: 1; stroke-dasharray: none; stroke-dashoffset: 0pt;"
             id="path3211"
             sodipodi:cx="416.54236"
             sodipodi:cy="286.37289"
             sodipodi:rx="94.493408"
             sodipodi:ry="120.52731"
             d="m 511.03577,286.37289 c 0,66.5654 -42.30614,120.52732 -94.49341,120.52732 -52.18727,0 -94.49341,-53.96192 -94.49341,-120.52732 0,-66.56539 42.30614,-120.52731 94.49341,-120.52731 52.18662,0 94.4925,53.96064 94.49341,120.52522"
             sodipodi:start="0"
             sodipodi:end="6.2831679"
             sodipodi:open="true"
             transform="matrix(1.18175, 0, 0, 1.13449, -81.4927, -58.7639)" />
          <path
             sodipodi:type="arc"
             style="fill: rgb(0, 0, 0); fill-opacity: 1; fill-rule: evenodd; stroke: rgb(0, 0, 0); stroke-width: 2.36446; stroke-linecap: butt; stroke-linejoin: miter; stroke-miterlimit: 4; stroke-opacity: 1; stroke-dasharray: none; stroke-dashoffset: 0pt;"
             id="path3213"
             sodipodi:cx="430.04144"
             sodipodi:cy="269.01694"
             sodipodi:rx="77.137474"
             sodipodi:ry="97.386063"
             d="m 507.17892,269.01694 c 0,53.78483 -34.53563,97.38606 -77.13748,97.38606 -42.60185,0 -77.13747,-43.60123 -77.13747,-97.38606 0,-53.78484 34.53562,-97.38607 77.13747,-97.38607 42.60133,0 77.13674,43.6002 77.13748,97.38437"
             sodipodi:start="0"
             sodipodi:end="6.2831679"
             sodipodi:open="true"
             transform="matrix(1.28349, 0, 0, 1.25425, -142.162, -58.7558)" />
          <path
             transform="matrix(1.22167, 0, 0, 1.22509, -116.54, -48.0168)"
             sodipodi:open="true"
             sodipodi:end="6.2831679"
             sodipodi:start="0"
             d="m 507.17892,269.01694 c 0,53.78483 -34.53563,97.38606 -77.13748,97.38606 -42.60185,0 -77.13747,-43.60123 -77.13747,-97.38606 0,-53.78484 34.53562,-97.38607 77.13747,-97.38607 42.60133,0 77.13674,43.6002 77.13748,97.38437"
             sodipodi:ry="97.386063"
             sodipodi:rx="77.137474"
             sodipodi:cy="269.01694"
             sodipodi:cx="430.04144"
             id="path3215"
             style="fill: url(&quot;#radialGradient3309&quot;) rgb(0, 0, 0); fill-opacity: 1; fill-rule: evenodd; stroke: none;"
             sodipodi:type="arc" />
          <path
             sodipodi:type="arc"
             style="fill: url(&quot;#radialGradient3319&quot;) rgb(0, 0, 0); fill-opacity: 1; fill-rule: evenodd; stroke: none;"
             id="path3229"
             sodipodi:cx="615.17139"
             sodipodi:cy="306.62146"
             sodipodi:rx="77.137474"
             sodipodi:ry="79.06591"
             d="m 692.30886,306.62146 c 0,43.6669 -34.53562,79.06591 -77.13747,79.06591 -42.60185,0 -77.13748,-35.39901 -77.13748,-79.06591 0,-43.6669 34.53563,-79.06591 77.13748,-79.06591 42.60132,0 77.13673,35.39817 77.13747,79.06453"
             sodipodi:start="0"
             sodipodi:end="6.2831679"
             sodipodi:open="true"
             transform="matrix(1.32188, 0, 0, 1.10671, -206.152, -47.3256)" />
          <path
             transform="translate(50.2298, -3.03579)"
             sodipodi:type="arc"
             style="fill: rgb(0, 0, 0); fill-opacity: 1; fill-rule: evenodd; stroke: none;"
             id="path3231"
             sodipodi:cx="482.10922"
             sodipodi:cy="296.01508"
             sodipodi:rx="26.998117"
             sodipodi:ry="39.532955"
             d="m 509.10734,296.01508 c 0,21.83344 -12.08747,39.53295 -26.99812,39.53295 -14.91065,0 -26.99812,-17.69951 -26.99812,-39.53295 0,-21.83345 12.08747,-39.53296 26.99812,-39.53296 14.91047,0 26.99786,17.69909 26.99812,39.53227"
             sodipodi:start="0"
             sodipodi:end="6.2831679"
             sodipodi:open="true" />
          <path
             style="opacity: 0.8; fill: url(&quot;#linearGradient3336&quot;) rgb(0, 0, 0); fill-opacity: 1; fill-rule: evenodd; stroke: none;"
             d="m 349.04712,202.48588 c 0,0 26.99804,-50.13937 79.06584,-32.78343 52.0678,17.35593 61.71006,46.28248 75.20906,115.70621 13.4991,69.42373 -53.9962,7.71375 -53.9962,7.71375 0,0 -7.7138,-59.78154 -42.4257,-77.13748 -34.7118,-17.35593 -57.853,-11.57062 -57.853,-13.49905 z"
             id="path3328"
             sodipodi:nodetypes="csscsc" />
          <path
             sodipodi:type="arc"
             style="fill: rgb(0, 0, 0); fill-opacity: 1; fill-rule: evenodd; stroke: rgb(0, 0, 0); stroke-width: 2.3; stroke-linecap: butt; stroke-linejoin: miter; stroke-miterlimit: 4; stroke-opacity: 1; stroke-dasharray: none; stroke-dashoffset: 0pt;"
             id="path3217"
             sodipodi:cx="482.10922"
             sodipodi:cy="296.01508"
             sodipodi:rx="26.998117"
             sodipodi:ry="39.532955"
             d="m 509.10734,296.01508 c 0,21.83344 -12.08747,39.53295 -26.99812,39.53295 -14.91065,0 -26.99812,-17.69951 -26.99812,-39.53295 0,-21.83345 12.08747,-39.53296 26.99812,-39.53296 14.91047,0 26.99786,17.69909 26.99812,39.53227"
             sodipodi:start="0"
             sodipodi:end="6.2831679"
             sodipodi:open="true"
             transform="translate(-7.78528, -3.85687)" />
          <path
             style="opacity: 0.8; fill: url(&quot;#linearGradient3382&quot;) rgb(0, 0, 0); fill-opacity: 1; fill-rule: evenodd; stroke: none;"
             d="m 592.03013,212.12806 c 0,0 55.9247,-9.64218 86.7797,28.92656 30.855,38.56874 21.2128,52.06779 21.2128,52.06779 l -42.4256,1.92844 c 0,0 -26.9982,-61.70998 -65.5669,-82.92279 z"
             id="path3374"
             sodipodi:nodetypes="csccc" />
          <path
             style="opacity: 0.8; fill: url(&quot;#radialGradient3394&quot;) rgb(0, 0, 0); fill-opacity: 1; fill-rule: evenodd; stroke: none;"
             d="m 521.42603,333.13229 c 0,0 50.7714,29.96159 95.1254,24.17628 44.3541,-5.78531 65.269,-22.22969 83.1516,-39.79626 -4.4888,21.07481 -46.2135,54.3122 -82.8538,56.24063 -36.6403,1.92844 -95.4232,-38.69221 -95.4232,-40.62065 z"
             id="path3384"
             sodipodi:nodetypes="cscsc" />
          <path
             sodipodi:nodetypes="cscsc"
             id="path3402"
             d="m 318.6246,245.29756 c 0,0 8.33629,67.83116 47.44009,105.14083 39.10387,37.30978 71.19992,45.48354 102.13374,50.06433 C 443.84051,410.79746 379.38029,394.78716 349.9155,362.0084 320.45071,329.22964 316.70453,246.62188 318.6246,245.29756 z"
             style="opacity: 0.8; fill: url(&quot;#radialGradient3404&quot;) rgb(0, 0, 0); fill-opacity: 1; fill-rule: evenodd; stroke: none;" />
          <path
             id="path3202"
             style="fill: url(&quot;#radialGradient3434&quot;) rgb(0, 0, 0); fill-opacity: 1; fill-rule: evenodd; stroke: none;"
             d="m 513.1526,491.7732 c 0,0 9.5069,-0.17903 9.5069,-0.17903 0,0 10.3427,-11.43988 46.2966,-49.02805 23.9693,-27.23781 31.5959,-45.21477 31.5959,-45.21477 0,0 4.9028,-17.97695 -18.5217,-36.49866 -30.7436,-15.26467 -46.2966,-15.25318 -69.027,-15.16366 -22.7304,0.0895 -39.6102,2.81329 -69.027,15.34269 -29.4168,12.52939 -24.514,37.58817 -24.514,37.58817 0,0 2.179,11.98464 38.1329,49.57282 35.9539,37.58817 55.5574,43.58049 55.5574,43.58049 z"
             sodipodi:nodetypes="ccccccscsc" />
          <path
             style="opacity: 0.8; fill: url(&quot;#linearGradient3414&quot;) rgb(0, 0, 0); fill-opacity: 1; fill-rule: evenodd; stroke: none;"
             d="m 452.5581,363.56666 c 0,0 46.5221,3.10147 77.0939,21.71035 30.5717,18.60887 41.6484,44.30683 41.6484,44.30683 0,0 19.0519,-20.82421 21.7103,-28.79944 2.6584,-7.97523 7.9753,-23.92569 -19.938,-39.87615 -27.9134,-15.95047 -43.8638,-11.51978 -70.891,-11.07671 -27.0272,0.44306 -49.6236,14.17818 -49.6236,13.73512 z"
             id="path3406" />
          <path
             style="fill: rgb(255, 255, 255); fill-opacity: 0.428571; fill-rule: evenodd; stroke: none;"
             d="m 431.93304,380.40036 c 0,0 2.6567,9.56407 5.3134,11.95509 2.6567,2.39102 -4.2507,-0.53134 -2.6567,6.37605 1.594,6.90738 81.2946,84.48263 81.2946,84.48263 0,0 -3.7193,3.18803 -19.1281,-7.97006 -15.4088,-11.15808 -51.8055,-49.1487 -61.3695,-61.10379 -8.9373,-11.17166 -11.9551,-20.45649 -3.4537,-33.73992 z"
             id="path3416"
             sodipodi:nodetypes="csscssc" />
          <path
             sodipodi:type="arc"
             style="opacity: 0.8; fill: url(&quot;#linearGradient3608&quot;) rgb(0, 0, 0); fill-opacity: 1; fill-rule: evenodd; stroke: none;"
             id="path3600"
             sodipodi:cx="1304.5875"
             sodipodi:cy="852.36914"
             sodipodi:rx="78.101692"
             sodipodi:ry="46.282486"
             d="m 1382.6892,852.36914 c 0,25.56111 -34.9673,46.28249 -78.1017,46.28249 -43.1343,0 -78.1017,-20.72138 -78.1017,-46.28249 0,-25.56111 34.9674,-46.28249 78.1017,-46.28249 43.1339,0 78.101,20.72089 78.1017,46.28168"
             sodipodi:start="0"
             sodipodi:end="6.2831679"
             sodipodi:open="true"
             transform="matrix(1.33333, 0, 0, 1.47917, -1450.18, -395.892)" />
          <path
             transform="matrix(1.33333, 0, 0, 1.47917, -1000.86, -395.892)"
             sodipodi:open="true"
             sodipodi:end="6.2831679"
             sodipodi:start="0"
             d="m 1382.6892,852.36914 c 0,25.56111 -34.9673,46.28249 -78.1017,46.28249 -43.1343,0 -78.1017,-20.72138 -78.1017,-46.28249 0,-25.56111 34.9674,-46.28249 78.1017,-46.28249 43.1339,0 78.101,20.72089 78.1017,46.28168"
             sodipodi:ry="46.282486"
             sodipodi:rx="78.101692"
             sodipodi:cy="852.36914"
             sodipodi:cx="1304.5875"
             id="path3610"
             style="opacity: 0.8; fill: url(&quot;#linearGradient3612&quot;) rgb(0, 0, 0); fill-opacity: 1; fill-rule: evenodd; stroke: none;"
             sodipodi:type="arc" />
          <path
             style="fill: url(&quot;#linearGradient3750&quot;) rgb(0, 0, 0); fill-opacity: 1; fill-rule: evenodd; stroke: none;"
             d="m 34.711858,597.81545 c 0,0 161.988742,-104.1356 187.058342,-123.41997 25.0697,-19.28437 1.92847,-80.99435 1.92847,-80.99435 0,0 -23.14127,32.78343 -55.92467,65.56686 -28.9265,23.14124 -52.0678,42.42561 -96.4218,79.06591 -44.3541,44.35404 -36.640342,61.70998 -36.640342,59.78155 z"
             id="path3742"
             sodipodi:nodetypes="cscccc" />
          <path
             style="fill: rgb(255, 255, 255); fill-opacity: 0.385714; fill-rule: evenodd; stroke: none;"
             d="m 51.838983,619.15281 c 0,0 57.787797,-38.24189 69.685197,-42.49099 11.8975,-4.24909 22.9452,-11.04765 31.4434,-16.14657 8.4982,-5.09892 25.4946,-4.2491 25.4946,-4.2491 l -2.5495,5.94874 c 0,0 -11.8975,-1.69964 -25.4946,5.94874 -13.5971,7.64837 -31.4433,16.99639 -41.6411,24.64477 -10.197897,7.64837 -32.293197,19.54585 -36.542297,20.39567 -4.2491,0.84982 -15.2967,8.4982 -15.2967,8.4982 l -5.099,-2.54946 z"
             id="path3752" />
          <path
             sodipodi:nodetypes="cscccc"
             id="path3754"
             d="m 986.94033,595.88701 c 0,0 -161.98874,-104.1356 -187.05834,-123.41997 -25.0697,-19.28437 -1.92847,-80.99435 -1.92847,-80.99435 0,0 23.14127,32.78343 55.92467,65.56686 28.9265,23.14124 52.0678,42.42561 96.4218,79.06591 44.3541,44.35404 36.64034,61.70998 36.64034,59.78155 z"
             style="fill: url(&quot;#linearGradient3758&quot;) rgb(0, 0, 0); fill-opacity: 1; fill-rule: evenodd; stroke: none;" />
          <path
             id="path3756"
             d="m 969.81321,617.22437 c 0,0 -57.7878,-38.24189 -69.6852,-42.49099 -11.8975,-4.24909 -22.9452,-11.04765 -31.4434,-16.14657 -8.4982,-5.09892 -25.4946,-4.2491 -25.4946,-4.2491 l 2.5495,5.94874 c 0,0 11.8975,-1.69964 25.4946,5.94874 13.5971,7.64837 31.4433,16.99639 41.6411,24.64477 10.1979,7.64837 32.2932,19.54585 36.5423,20.39567 4.2491,0.84982 15.2967,8.4982 15.2967,8.4982 l 5.099,-2.54946 z"
             style="fill: rgb(255, 255, 255); fill-opacity: 0.385714; fill-rule: evenodd; stroke: none;" />
          <path
             style="fill: url(&quot;#linearGradient3806&quot;) rgb(0, 0, 0); fill-opacity: 1; fill-rule: evenodd; stroke: none;"
             d="m 486.06998,917.51684 c 0,0 20.7963,1.78844 29.33121,1.62728 9.61712,-0.18159 22.17785,-1.0372 28.8721,-1.81586 2.09355,10.31714 8.71266,19.70377 10.8951,22.51659 2.7238,2.5422 -80.4423,0.36317 -80.4423,0.36317 0,0 10.43943,-14.44827 11.34389,-22.69118 z"
             id="path3798"
             sodipodi:nodetypes="cscccc" />
          <path
             sodipodi:nodetypes="cccc"
             id="path3828"
             d="m 468.89806,254.15419 c 0,0 6.6678,19.26258 7.1617,35.56168 14.5704,-4.93912 22.2261,-9.87824 22.2261,-9.87824 0,0 -3.7044,-25.68344 -29.3878,-25.68344 z"
             style="fill: url(&quot;#linearGradient3832&quot;) rgb(0, 0, 0); fill-opacity: 1; fill-rule: evenodd; stroke: none;" />
          <path
             sodipodi:nodetypes="cscssc"
             id="path3830"
             d="m 453.74298,267.83483 c 0,0 -2.4696,21.48519 6.6678,36.0556 9.1374,14.57041 19.5096,19.26258 27.4122,20.99127 -2.4696,2.22261 -13.5826,8.14955 -23.9548,-0.24696 -10.3722,-8.3965 -15.5582,-16.54606 -15.5582,-27.65908 0,-11.11303 1.9756,-24.94257 5.433,-29.14083 z"
             style="fill: url(&quot;#linearGradient3834&quot;) rgb(0, 0, 0); fill-opacity: 1; fill-rule: evenodd; stroke: none;" />
          <path
             style="fill: url(&quot;#linearGradient3840&quot;) rgb(0, 0, 0); fill-opacity: 1; fill-rule: evenodd; stroke: none;"
             d="m 526.11562,255.40714 c 0,0 6.6678,19.26258 7.1617,35.56168 14.5704,-4.93912 22.2261,-9.87824 22.2261,-9.87824 0,0 -3.7044,-25.68344 -29.3878,-25.68344 z"
             id="path3836"
             sodipodi:nodetypes="cccc" />
          <path
             style="fill: url(&quot;#linearGradient3842&quot;) rgb(0, 0, 0); fill-opacity: 1; fill-rule: evenodd; stroke: none;"
             d="m 513.04877,269.92307 c 0,0 -2.4696,21.48519 6.6678,36.0556 9.1374,14.57041 19.5096,19.26258 27.4122,20.99127 -2.4696,2.22261 -13.5826,8.14955 -23.9548,-0.24696 -10.3722,-8.3965 -15.5582,-16.54606 -15.5582,-27.65908 0,-11.11303 1.9756,-24.94257 5.433,-29.14083 z"
             id="path3838"
             sodipodi:nodetypes="cscssc" />
        </g>
      </g>
    </pattern>
    <linearGradient
       x1="147.48227"
       y1="55.989796"
       x2="139.40105"
       y2="43.867966"
       id="linearGradient4600"
       xlink:href="#linearGradient4510"
       gradientUnits="userSpaceOnUse"
       gradientTransform="translate(-6.06092,1.01015)"
       spreadMethod="pad" />
    <linearGradient
       id="linearGradient4510">
      <stop
         id="stop4514"
         style="stop-color:#e1e0df;stop-opacity:0.49803901"
         offset="0" />
      <stop
         id="stop4536"
         style="stop-color:#697c8b;stop-opacity:1"
         offset="0" />
      <stop
         id="stop4602"
         style="stop-color:#a5aeb5;stop-opacity:1"
         offset="0" />
      <stop
         id="stop4534"
         style="stop-color:#e1e0df;stop-opacity:1"
         offset="0" />
      <stop
         id="stop4516"
         style="stop-color:#e1e0df;stop-opacity:0"
         offset="1" />
    </linearGradient>
    <linearGradient
       id="linearGradient3645">
      <stop
         id="stop3647"
         style="stop-color:#e1e0df;stop-opacity:0.49803901"
         offset="0" />
      <stop
         id="stop3649"
         style="stop-color:#697c8b;stop-opacity:1"
         offset="0" />
      <stop
         id="stop3651"
         style="stop-color:#a5aeb5;stop-opacity:1"
         offset="0" />
      <stop
         id="stop3653"
         style="stop-color:#e1e0df;stop-opacity:1"
         offset="0" />
      <stop
         id="stop3655"
         style="stop-color:#e1e0df;stop-opacity:0"
         offset="1" />
    </linearGradient>
    <linearGradient
       x1="147.48227"
       y1="55.989796"
       x2="139.40105"
       y2="43.867966"
       id="linearGradient3657"
       xlink:href="#linearGradient4510"
       gradientUnits="userSpaceOnUse"
       gradientTransform="translate(-6.06092,1.01015)"
       spreadMethod="pad" />
    <linearGradient
       id="linearGradient3659">
      <stop
         id="stop3661"
         style="stop-color:#e1e0df;stop-opacity:0.49803901"
         offset="0" />
      <stop
         id="stop3663"
         style="stop-color:#697c8b;stop-opacity:1"
         offset="0" />
      <stop
         id="stop3665"
         style="stop-color:#a5aeb5;stop-opacity:1"
         offset="0" />
      <stop
         id="stop3667"
         style="stop-color:#e1e0df;stop-opacity:1"
         offset="0" />
      <stop
         id="stop3669"
         style="stop-color:#e1e0df;stop-opacity:0"
         offset="1" />
    </linearGradient>
    <linearGradient
       x1="126.2825"
       y1="83.14286"
       x2="248.0032"
       y2="83.14286"
       id="linearGradient3845"
       xlink:href="#linearGradient3839"
       gradientUnits="userSpaceOnUse"
       gradientTransform="translate(-1.37129e-6,-4.35129e-6)" />
    <linearGradient
       id="linearGradient3839">
      <stop
         id="stop3841"
         style="stop-color:#426500;stop-opacity:1"
         offset="0" />
      <stop
         id="stop3843"
         style="stop-color:#426500;stop-opacity:0"
         offset="1" />
    </linearGradient>
  </defs>
  <g
     transform="translate(0,-952.36)"
     id="layer1">
    <g
       transform="matrix(0.44293857,0,0,0.44293857,-5.652121,947.50909)"
       id="layer1-5">
      <path
         d="M 41.844434,111.64947 C 67.994044,99.650433 95.244721,101.59828 123.41425,115.185 L 145.38507,37.403263 C 119.14227,24.290995 92.230749,18.534685 63.310174,34.877883 l -21.46574,76.771587 z"
         id="path2830-7"
         style="fill:#ea3700;fill-opacity:1;stroke:none" />
      <path
         d="m 152.2805,39.322279 c 37.12442,16.941206 63.60564,10.953386 83.60063,5.494562 l -21.41497,74.560029 c -38.65877,18.80476 -61.76395,6.73289 -84.40902,-1.76777 L 152.2805,39.322279 z"
         id="path2867"
         style="fill:#7dc800;fill-opacity:1;stroke:none" />
      <path
         d="m 128.28937,124.68017 c 24.84913,10.47379 50.99998,17.04241 83.84266,3.53553 l -26.5165,84.85282 c -31.32181,15.69984 -55.19162,10.42629 -81.82236,-2.02031 l 24.4962,-86.36804 z"
         id="path2869"
         style="fill:#ffc700;fill-opacity:1;stroke:none" />
      <path
         d="m 15.404826,205.49237 c 26.467815,-13.7934 53.756651,-10.75585 81.569818,3.03046 L 121.47084,121.90225 C 110.18433,116.74609 84.247882,102.5856 39.143411,120.8921 l -23.738585,84.60027 z"
         id="path2871"
         style="fill:#4342e7;fill-opacity:1;stroke:none" />
    </g>
  </g>
</svg>
